

mtllib B_LeftLegDog.mtl

#
# object B_Left_Dog_Leg
#

v  -0.0267 0.0601 -0.0724
v  -0.0047 0.0731 -0.0461
v  0.0052 0.0615 -0.0511
v  -0.0086 0.0455 -0.0737
v  0.0162 0.0753 -0.0114
v  0.0287 0.0535 -0.0344
v  0.0208 0.0450 -0.0540
v  0.0037 0.0360 -0.0734
v  -0.0235 0.0297 -0.0901
v  -0.0419 0.0372 -0.0892
v  -0.0060 0.0882 -0.0200
v  -0.0152 0.0866 -0.0336
v  0.0164 0.0169 -0.0784
v  0.0393 0.0213 -0.0568
v  0.0492 0.0322 -0.0269
v  0.0369 0.0546 0.0099
v  -0.0034 0.0915 -0.0000
v  0.0138 0.0773 0.0290
v  -0.0463 0.0196 -0.0961
v  0.0237 -0.0027 -0.0845
v  -0.0104 -0.0050 -0.1026
v  -0.0506 0.0052 -0.0996
v  0.0516 0.0279 0.0243
v  0.0632 0.0095 -0.0186
v  0.0261 0.0491 0.0459
v  0.0495 0.0028 -0.0582
v  0.0530 -0.0493 0.0752
v  0.0344 -0.0577 0.0836
v  0.0598 -0.1064 0.0721
v  0.0793 -0.0905 0.0449
v  0.0659 -0.0201 0.0460
v  0.0014 -0.0414 -0.1075
v  0.0148 -0.1054 -0.0996
v  -0.0226 -0.0508 -0.1098
v  -0.0151 -0.1141 -0.0951
v  -0.0384 -0.0143 -0.1064
v  -0.0593 -0.0230 -0.0978
v  0.0318 -0.0087 0.0724
v  -0.0680 -0.0672 -0.0313
v  -0.0653 -0.0816 -0.0365
v  -0.0484 -0.0850 0.0116
v  0.0332 -0.0327 -0.0879
v  0.0615 -0.0290 -0.0561
v  0.0686 -0.0939 -0.0525
v  0.0466 -0.0967 -0.0825
v  0.0600 -0.1565 -0.0512
v  0.0305 -0.1501 -0.0795
v  -0.0413 -0.0577 -0.1030
v  -0.0027 -0.1540 -0.0805
v  -0.0419 -0.1142 -0.0751
v  -0.0636 -0.0654 -0.0823
v  -0.0236 -0.1561 -0.0637
v  -0.0532 -0.1139 -0.0369
v  -0.0310 -0.1636 -0.0295
v  -0.0441 -0.1148 0.0042
v  -0.0276 -0.1705 -0.0023
v  -0.0275 -0.1164 0.0435
v  -0.0332 -0.0855 0.0448
v  -0.0161 -0.1744 0.0232
v  -0.0146 -0.0779 0.0683
v  -0.0021 -0.1172 0.0661
v  0.0072 -0.1755 0.0379
v  0.0223 -0.0464 0.0850
v  0.0006 -0.0714 0.0811
v  0.0175 -0.0858 0.0829
v  -0.0758 -0.0473 -0.0626
v  -0.0719 -0.0351 -0.0825
v  0.0769 -0.0279 -0.0065
v  0.0812 -0.0905 -0.0043
v  0.0733 -0.1608 -0.0100
v  0.0717 -0.1636 0.0155
v  0.0571 -0.1689 0.0368
v  0.0288 -0.1138 0.0772
v  0.0331 -0.1738 0.0423
v  0.0497 -0.3262 -0.0480
v  0.0670 -0.3253 -0.0132
v  0.0653 -0.3280 0.0123
v  0.0451 -0.3294 0.0461
v  0.0325 -0.3249 -0.0568
v  0.0103 -0.3246 -0.0561
v  0.0078 -0.3237 0.0455
v  -0.0125 -0.3229 0.0140
v  -0.0146 -0.3226 -0.0200
v  -0.0055 -0.3220 -0.0446
v  0.0499 -0.2812 -0.0505
v  0.0269 -0.2811 -0.0608
v  0.0041 -0.2790 -0.0599
v  -0.0082 -0.2768 -0.0484
v  -0.0118 -0.2765 -0.0313
v  0.0629 -0.2751 -0.0234
v  0.0633 -0.2839 -0.0018
v  0.0617 -0.2919 0.0174
v  0.0460 -0.2991 0.0461
v  0.0125 -0.3023 0.0460
v  -0.0129 -0.2902 -0.0083
v  -0.0091 -0.2988 0.0190
v  -0.0028 -0.2764 -0.0050
v  0.0089 -0.2839 0.0218
v  0.0173 -0.2740 0.0083
v  0.0375 -0.2727 0.0109
v  0.0358 -0.2828 0.0301
v  0.0575 -0.2724 -0.0009
v  0.0015 -0.2129 -0.0734
v  -0.0157 -0.2142 -0.0545
v  -0.0183 -0.2170 -0.0275
v  -0.0080 -0.2234 0.0024
v  0.0358 -0.2120 -0.0716
v  0.0564 -0.2154 -0.0485
v  0.0664 -0.2195 -0.0117
v  0.0558 -0.2214 0.0135
v  0.0149 -0.2252 0.0202
v  0.0368 -0.2246 0.0236
# 112 vertices

vn 0.2991 0.5865 -0.7527
vn 0.4736 0.7202 -0.5069
vn 0.4839 0.6465 -0.5897
vn 0.3874 0.5478 -0.7415
vn 0.5976 0.7602 -0.2547
vn 0.5167 0.6322 -0.5774
vn 0.6863 0.7020 -0.1902
vn 0.6785 0.6354 -0.3687
vn 0.5525 0.5603 -0.6171
vn 0.4210 0.5189 -0.7440
vn 0.4422 0.5185 -0.7318
vn 0.2936 0.4345 -0.8515
vn 0.0450 0.3895 -0.9199
vn 0.1975 0.3892 -0.8997
vn 0.5249 0.7834 -0.3329
vn 0.4385 0.7732 -0.4581
vn 0.4678 0.4619 -0.7535
vn 0.6542 0.4857 -0.5798
vn 0.8206 0.5210 -0.2350
vn 0.7895 0.6113 0.0549
vn 0.6270 0.7622 -0.1607
vn 0.8151 0.5329 -0.2273
vn 0.7562 0.6328 0.1665
vn -0.1642 0.2503 -0.9541
vn 0.5300 0.3364 -0.7784
vn 0.2272 0.3290 -0.9166
vn -0.3224 0.2443 -0.9145
vn 0.8494 0.4610 0.2570
vn 0.9069 0.3761 -0.1900
vn -0.2364 0.2228 -0.9458
vn 0.7718 0.4897 0.4055
vn 0.7633 0.3484 -0.5441
vn 0.5780 0.1822 0.7955
vn 0.1647 -0.0078 0.9863
vn 0.5446 -0.1979 0.8150
vn 0.9482 0.0118 0.3174
vn 0.8386 0.3174 0.4428
vn 0.3151 0.1037 -0.9434
vn 0.1837 -0.2209 -0.9578
vn -0.0978 -0.1056 -0.9896
vn -0.3461 -0.3558 -0.8681
vn -0.1642 0.0978 -0.9816
vn -0.6054 -0.0410 -0.7949
vn 0.6018 0.3626 0.7116
vn -0.9521 -0.2639 0.1544
vn -0.9388 -0.3442 0.0117
vn -0.9249 -0.2698 0.2679
vn 0.6247 0.1802 -0.7598
vn 0.8537 0.1723 -0.4915
vn 0.9206 -0.0255 -0.3898
vn 0.6554 -0.0567 -0.7532
vn 0.8139 -0.1154 -0.5694
vn 0.3539 -0.1936 -0.9150
vn -0.4889 -0.2171 -0.8449
vn -0.2288 -0.3031 -0.9251
vn -0.7540 -0.4141 -0.5098
vn -0.8193 -0.3402 -0.4615
vn -0.7639 -0.3360 -0.5509
vn -0.9306 -0.3656 -0.0176
vn -0.9542 -0.2933 -0.0587
vn -0.9459 -0.2873 0.1505
vn -0.9646 -0.2583 0.0528
vn -0.8993 -0.2033 0.3871
vn -0.8908 -0.2754 0.3614
vn -0.7650 -0.2817 0.5791
vn -0.8291 -0.1780 0.5300
vn -0.8969 -0.3068 0.3185
vn -0.7389 -0.3518 0.5747
vn -0.5852 -0.2681 0.7653
vn -0.4067 -0.3618 0.8389
vn -0.3892 -0.4010 0.8293
vn 0.2097 0.1058 0.9720
vn -0.1976 -0.1956 0.9606
vn -0.1605 -0.2075 0.9650
vn -0.9618 -0.2463 -0.1193
vn -0.8360 -0.1582 -0.5254
vn 0.9789 0.1958 -0.0587
vn 0.9961 -0.0411 -0.0783
vn 0.9777 -0.1078 -0.1803
vn 0.9359 -0.2114 0.2819
vn 0.5232 -0.4037 0.7505
vn 0.0392 -0.3936 0.9184
vn 0.0626 -0.4148 0.9078
vn 0.0763 -0.9958 -0.0509
vn 0.2231 -0.9708 -0.0881
vn 0.0509 -0.9975 -0.0489
vn -0.0821 -0.9964 -0.0195
vn -0.0293 -0.9990 -0.0332
vn -0.0859 -0.9961 -0.0195
vn -0.0586 -0.9983 -0.0078
vn -0.0352 -0.9994 -0.0059
vn -0.0117 -0.9998 -0.0137
vn -0.0997 -0.9950 -0.0039
vn 0.6197 -0.0391 -0.7839
vn 0.7875 -0.0372 -0.6151
vn 0.2814 -0.0606 -0.9577
vn 0.1095 -0.0723 -0.9914
vn -0.2363 -0.1152 -0.9648
vn -0.4687 -0.1211 -0.8750
vn -0.7933 -0.1153 -0.5979
vn -0.8710 -0.0937 -0.4823
vn -0.9749 -0.0762 -0.2091
vn 0.9966 0.0529 -0.0627
vn 0.9749 0.1253 -0.1840
vn 0.8738 0.3487 0.3389
vn 0.8127 0.4563 0.3623
vn 0.9308 0.0274 0.3645
vn 0.5253 0.3489 0.7761
vn 0.8588 -0.0255 0.5117
vn -0.3134 0.4113 0.8559
vn -0.0137 -0.0098 0.9999
vn -0.5971 0.0489 0.8007
vn -0.9372 -0.0312 -0.3475
vn -0.9947 0.0176 -0.1016
vn -0.9833 0.0117 -0.1818
vn -0.9541 0.2542 0.1584
vn -0.8118 0.3600 0.4597
vn -0.9640 0.0450 0.2620
vn -0.6660 0.6542 0.3584
vn -0.8077 0.5222 0.2738
vn -0.4017 0.7583 0.5134
vn -0.2253 0.8618 0.4544
vn 0.3806 0.7181 0.5827
vn 0.0647 0.8239 0.5630
vn 0.7562 0.3507 0.5525
vn -0.3027 -0.1719 -0.9375
vn -0.5220 -0.1838 -0.8329
vn -0.8800 -0.1838 -0.4380
vn -0.9252 -0.1311 -0.3560
vn -0.9806 -0.1719 -0.0938
vn -0.9735 -0.0919 -0.2092
vn -0.9362 -0.2208 0.2736
vn -0.9415 -0.1292 0.3112
vn -0.8119 -0.2485 0.5282
vn -0.7751 -0.1624 0.6107
vn 0.4830 -0.1271 -0.8663
vn 0.2989 -0.1543 -0.9417
vn 0.8451 -0.0822 -0.5282
vn 0.7004 -0.0489 -0.7121
vn 0.9891 -0.1195 0.0862
vn 0.9862 -0.0686 -0.1510
vn 0.6656 -0.2565 0.7009
vn 0.8421 -0.1469 0.5190
vn -0.4305 -0.2152 0.8766
vn -0.3287 -0.3209 0.8883
vn 0.1839 -0.2896 0.9393
vn 0.1938 -0.2467 0.9495
# 147 vertex normals

vt 0.0829 0.6155 0.0000
vt 0.1091 0.6387 0.0000
vt 0.0987 0.6496 0.0000
vt 0.0724 0.6350 0.0000
vt 0.1385 0.6642 0.0000
vt 0.7383 0.8956 0.0000
vt 0.7251 0.9393 0.0000
vt 0.7122 0.9096 0.0000
vt 0.7184 0.8876 0.0000
vt 0.7438 0.8630 0.0000
vt 0.7294 0.8623 0.0000
vt 0.7470 0.8340 0.0000
vt 0.0572 0.6002 0.0000
vt 0.0515 0.6188 0.0000
vt 0.1371 0.6382 0.0000
vt 0.1259 0.6281 0.0000
vt 0.7091 0.8535 0.0000
vt 0.6918 0.8782 0.0000
vt 0.6833 0.9083 0.0000
vt 0.6887 0.9488 0.0000
vt 0.1558 0.6420 0.0000
vt 0.1778 0.6644 0.0000
vt 0.7048 0.9760 0.0000
vt 0.0409 0.5950 0.0000
vt 0.6913 0.8429 0.0000
vt 0.7117 0.8156 0.0000
vt 0.0278 0.5917 0.0000
vt 0.6558 0.9514 0.0000
vt 0.6581 0.9065 0.0000
vt 0.7435 0.7949 0.0000
vt 0.6695 0.9862 0.0000
vt 0.6739 0.8711 0.0000
vt 0.5707 0.9582 0.0000
vt 0.5562 0.9707 0.0000
vt 0.5327 0.9206 0.0000
vt 0.5555 0.9053 0.0000
vt 0.6066 0.9466 0.0000
vt 0.6767 0.8008 0.0000
vt 0.6202 0.7769 0.0000
vt 0.6809 0.7817 0.0000
vt 0.6261 0.7525 0.0000
vt 0.7189 0.7909 0.0000
vt 0.7218 0.7713 0.0000
vt 0.6038 0.9899 0.0000
vt 0.6951 0.6963 0.0000
vt 0.6792 0.6976 0.0000
vt 0.6756 0.6514 0.0000
vt 0.6638 0.8295 0.0000
vt 0.6448 0.8603 0.0000
vt 0.5930 0.8312 0.0000
vt 0.6088 0.8049 0.0000
vt 0.5472 0.7965 0.0000
vt 0.5728 0.7678 0.0000
vt 0.6833 0.7662 0.0000
vt 0.5858 0.7391 0.0000
vt 0.6377 0.7272 0.0000
vt 0.6879 0.7408 0.0000
vt 0.5937 0.7150 0.0000
vt 0.6451 0.6928 0.0000
vt 0.5936 0.6811 0.0000
vt 0.6458 0.6540 0.0000
vt 0.5901 0.6547 0.0000
vt 0.4395 0.9900 0.0000
vt 0.4252 0.9642 0.0000
vt 0.4631 0.9541 0.0000
vt 0.4739 0.9828 0.0000
vt 0.4104 0.9104 0.0000
vt 0.4344 0.9009 0.0000
vt 0.5041 0.9846 0.0000
vt 0.4895 0.9438 0.0000
vt 0.4563 0.8897 0.0000
vt 0.5610 0.9866 0.0000
vt 0.5261 0.9843 0.0000
vt 0.5270 0.9616 0.0000
vt 0.7112 0.7286 0.0000
vt 0.7172 0.7505 0.0000
vt 0.6220 0.8994 0.0000
vt 0.5736 0.8690 0.0000
vt 0.5231 0.8285 0.0000
vt 0.5102 0.8477 0.0000
vt 0.4945 0.8648 0.0000
vt 0.5129 0.9336 0.0000
vt 0.4763 0.8773 0.0000
vt 0.0201 0.7560 0.0000
vt 0.0114 0.7212 0.0000
vt 0.0100 0.6975 0.0000
vt 0.0280 0.6655 0.0000
vt 0.0371 0.7615 0.0000
vt 0.0577 0.7610 0.0000
vt 0.0631 0.6668 0.0000
vt 0.0809 0.6969 0.0000
vt 0.0822 0.7283 0.0000
vt 0.0726 0.7506 0.0000
vt 0.4104 0.1490 0.0000
vt 0.4493 0.1634 0.0000
vt 0.4395 0.1787 0.0000
vt 0.3994 0.1693 0.0000
vt 0.4310 0.1977 0.0000
vt 0.3892 0.1878 0.0000
vt 0.4227 0.2144 0.0000
vt 0.3822 0.2021 0.0000
vt 0.3773 0.2178 0.0000
vt 0.4641 0.1298 0.0000
vt 0.4160 0.1216 0.0000
vt 0.4310 0.1083 0.0000
vt 0.4420 0.0946 0.0000
vt 0.4736 0.1074 0.0000
vt 0.4516 0.0664 0.0000
vt 0.4802 0.0706 0.0000
vt 0.4326 0.0430 0.0000
vt 0.4698 0.0441 0.0000
vt 0.4396 0.0244 0.0000
vt 0.3481 0.0100 0.0000
vt 0.3729 0.0102 0.0000
vt 0.3563 0.0547 0.0000
vt 0.3780 0.0418 0.0000
vt 0.4031 0.0360 0.0000
vt 0.4053 0.0131 0.0000
vt 0.3794 0.0580 0.0000
vt 0.3540 0.0503 0.0000
vt 0.4076 0.0565 0.0000
vt 0.3984 0.0709 0.0000
vt 0.4123 0.0840 0.0000
vt 0.4277 0.0719 0.0000
vt 0.4234 0.1017 0.0000
vt 0.5338 0.7182 0.0000
vt 0.4758 0.6932 0.0000
vt 0.5402 0.6961 0.0000
vt 0.4830 0.6790 0.0000
vt 0.5418 0.6715 0.0000
vt 0.4850 0.6625 0.0000
vt 0.3791 0.8698 0.0000
vt 0.3595 0.8158 0.0000
vt 0.4068 0.8572 0.0000
vt 0.3854 0.8106 0.0000
vt 0.5192 0.7461 0.0000
vt 0.4638 0.7110 0.0000
vt 0.5010 0.7686 0.0000
vt 0.4518 0.7317 0.0000
vt 0.4795 0.7980 0.0000
vt 0.4434 0.7594 0.0000
vt 0.4652 0.8198 0.0000
vt 0.4368 0.7799 0.0000
vt 0.4072 0.8056 0.0000
vt 0.4318 0.8452 0.0000
vt 0.4497 0.8337 0.0000
vt 0.4234 0.7965 0.0000
# 147 texture coords

o B_Left_Dog_Leg
g B_Left_Dog_Leg
usemtl Material__27
s 1
f 1/1/1 2/2/2 3/3/3 
f 1/1/1 3/3/3 4/4/4 
f 3/3/3 2/2/2 5/5/5 
f 3/6/6 5/7/7 6/8/8 
f 3/6/6 6/8/8 7/9/9 
f 4/10/10 3/6/6 8/11/11 
f 3/6/6 7/9/9 8/11/11 
f 4/10/10 8/11/11 9/12/12 
f 10/13/13 1/1/1 9/14/14 
f 1/1/1 4/4/4 9/14/14 
f 11/15/15 5/5/5 2/2/2 
f 11/15/15 2/2/2 12/16/16 
f 9/12/12 8/11/11 13/17/17 
f 13/17/17 8/11/11 7/9/9 
f 13/17/17 7/9/9 14/18/18 
f 14/18/18 7/9/9 6/8/8 
f 14/18/18 6/8/8 15/19/19 
f 15/19/19 6/8/8 16/20/20 
f 6/8/8 5/7/7 16/20/20 
f 5/5/5 11/15/15 17/21/21 
f 5/5/5 17/21/21 18/22/22 
f 16/20/20 5/7/7 18/23/23 
f 9/14/14 19/24/24 10/13/13 
f 13/17/17 20/25/25 21/26/26 
f 13/17/17 21/26/26 9/12/12 
f 22/27/27 19/24/24 9/14/14 
f 15/19/19 16/20/20 23/28/28 
f 15/19/19 23/28/28 24/29/29 
f 9/12/12 21/26/26 22/30/30 
f 16/20/20 18/23/23 25/31/31 
f 16/20/20 25/31/31 23/28/28 
f 15/19/19 24/29/29 26/32/32 
f 15/19/19 26/32/32 14/18/18 
f 14/18/18 26/32/32 20/25/25 
f 14/18/18 20/25/25 13/17/17 
f 27/33/33 28/34/34 29/35/35 
f 27/33/33 30/36/36 31/37/37 
f 32/38/38 33/39/39 34/40/40 
f 33/39/39 35/41/41 34/40/40 
f 21/26/26 32/38/38 36/42/42 
f 32/38/38 34/40/40 36/42/42 
f 22/30/30 21/26/26 36/42/42 
f 36/42/42 37/43/43 22/30/30 
f 31/37/37 23/28/28 38/44/44 
f 23/28/28 25/31/31 38/44/44 
f 39/45/45 40/46/46 41/47/47 
f 20/25/25 26/32/32 42/48/48 
f 26/32/32 43/49/49 42/48/48 
f 43/49/49 44/50/50 45/51/51 
f 43/49/49 45/51/51 42/48/48 
f 46/52/52 47/53/53 45/51/51 
f 46/52/52 45/51/51 44/50/50 
f 42/48/48 45/51/51 32/38/38 
f 45/51/51 33/39/39 32/38/38 
f 45/51/51 47/53/53 33/39/39 
f 35/41/41 48/54/54 34/40/40 
f 47/53/53 49/55/55 33/39/39 
f 49/55/55 35/41/41 33/39/39 
f 48/54/54 35/41/41 50/56/56 
f 48/54/54 50/56/56 51/57/57 
f 49/55/55 52/58/58 35/41/41 
f 52/58/58 50/56/56 35/41/41 
f 51/57/57 50/56/56 40/46/46 
f 50/56/56 53/59/59 40/46/46 
f 52/58/58 54/60/60 53/59/59 
f 52/58/58 53/59/59 50/56/56 
f 40/46/46 53/59/59 41/47/47 
f 53/59/59 55/61/61 41/47/47 
f 54/60/60 56/62/62 55/61/61 
f 54/60/60 55/61/61 53/59/59 
f 41/63/63 55/64/64 57/65/65 
f 41/63/63 57/65/65 58/66/66 
f 56/67/67 59/68/68 55/64/64 
f 59/68/68 57/65/65 55/64/64 
f 58/66/66 57/65/65 60/69/69 
f 57/65/65 61/70/70 60/69/69 
f 59/68/68 62/71/71 57/65/65 
f 62/71/71 61/70/70 57/65/65 
f 63/72/72 64/73/73 28/34/34 
f 64/73/73 65/74/74 28/34/34 
f 60/69/69 65/74/74 64/73/73 
f 63/72/72 28/34/34 27/33/33 
f 63/72/72 27/33/33 38/44/44 
f 29/35/35 30/36/36 27/33/33 
f 31/37/37 38/44/44 27/33/33 
f 51/57/57 40/46/46 66/75/75 
f 40/46/46 39/45/45 66/75/75 
f 67/76/76 51/57/57 66/75/75 
f 48/54/54 51/57/57 67/76/76 
f 48/54/54 67/76/76 37/43/43 
f 48/54/54 37/43/43 36/42/42 
f 48/54/54 36/42/42 34/40/40 
f 42/48/48 32/38/38 20/25/25 
f 32/38/38 21/26/26 20/25/25 
f 43/49/49 26/32/32 24/29/29 
f 43/49/49 24/29/29 68/77/77 
f 31/37/37 68/77/77 23/28/28 
f 68/77/77 24/29/29 23/28/28 
f 44/50/50 43/49/49 68/77/77 
f 44/50/50 68/77/77 69/78/78 
f 30/36/36 69/78/78 68/77/77 
f 30/36/36 68/77/77 31/37/37 
f 46/52/52 44/50/50 70/79/79 
f 44/50/50 69/78/78 70/79/79 
f 71/80/80 70/79/79 69/78/78 
f 71/80/80 69/78/78 30/36/36 
f 29/35/35 72/81/81 71/80/80 
f 29/35/35 71/80/80 30/36/36 
f 73/82/82 74/83/83 72/81/81 
f 73/82/82 72/81/81 29/35/35 
f 62/71/71 74/83/83 61/70/70 
f 74/83/83 73/82/82 61/70/70 
f 60/69/69 61/70/70 65/74/74 
f 61/70/70 73/82/82 65/74/74 
f 28/34/34 65/74/74 29/35/35 
f 65/74/74 73/82/82 29/35/35 
f 75/84/84 76/85/85 77/86/86 
f 77/86/86 78/87/87 79/88/88 
f 78/87/87 80/89/89 79/88/88 
f 81/90/90 82/91/91 83/92/92 
f 83/92/92 84/93/93 81/90/90 
f 84/93/93 80/89/89 78/87/87 
f 84/93/93 78/87/87 81/90/90 
f 77/86/86 79/88/88 75/84/84 
f 85/94/94 75/95/95 79/96/96 
f 85/94/94 79/96/96 86/97/97 
f 86/97/97 79/96/96 80/98/98 
f 86/97/97 80/98/98 87/99/99 
f 87/99/99 80/98/98 84/100/100 
f 87/99/99 84/100/100 88/101/101 
f 89/102/102 88/101/101 84/100/100 
f 76/103/103 75/95/95 90/104/104 
f 75/95/95 85/94/94 90/104/104 
f 90/104/104 91/105/105 76/103/103 
f 76/103/103 91/105/105 92/106/106 
f 76/103/103 92/106/106 77/107/107 
f 92/106/106 93/108/108 77/107/107 
f 93/108/108 78/109/109 77/107/107 
f 93/108/108 94/110/110 78/111/111 
f 94/110/110 81/112/112 78/111/111 
f 84/113/113 83/114/114 89/115/115 
f 83/114/114 95/116/116 89/115/115 
f 94/110/110 96/117/117 81/112/112 
f 96/117/117 82/118/118 81/112/112 
f 83/114/114 82/118/118 95/116/116 
f 82/118/118 96/117/117 95/116/116 
f 97/119/119 89/120/120 95/116/116 
f 95/116/116 96/117/117 97/119/119 
f 96/117/117 98/121/121 97/119/119 
f 99/122/122 97/119/119 98/121/121 
f 96/117/117 94/110/110 98/121/121 
f 100/123/123 99/122/122 101/124/124 
f 99/122/122 98/121/121 101/124/124 
f 101/124/124 98/121/121 94/110/110 
f 101/124/124 94/110/110 93/108/108 
f 101/124/124 93/108/108 92/106/106 
f 101/124/124 92/106/106 100/123/123 
f 92/106/106 91/105/105 100/123/123 
f 102/125/125 100/123/123 91/105/105 
f 102/125/125 91/105/105 90/104/104 
f 103/126/126 87/127/127 104/128/128 
f 87/127/127 88/129/129 104/128/128 
f 104/128/128 88/129/129 105/130/130 
f 88/129/129 89/131/131 105/130/130 
f 105/132/132 89/133/133 106/134/134 
f 89/133/133 97/135/135 106/134/134 
f 103/126/126 107/136/136 86/137/137 
f 103/126/126 86/137/137 87/127/127 
f 107/136/136 108/138/138 86/137/137 
f 108/138/138 85/139/139 86/137/137 
f 108/138/138 109/140/140 90/141/141 
f 108/138/138 90/141/141 85/139/139 
f 109/140/140 110/142/142 102/143/143 
f 109/140/140 102/143/143 90/141/141 
f 106/134/134 97/135/135 99/144/144 
f 106/134/134 99/144/144 111/145/145 
f 110/142/142 112/146/146 100/147/147 
f 110/142/142 100/147/147 102/143/143 
f 99/144/144 100/147/147 111/145/145 
f 100/147/147 112/146/146 111/145/145 
f 109/140/140 71/80/80 110/142/142 
f 71/80/80 72/81/81 110/142/142 
f 110/142/142 72/81/81 74/83/83 
f 110/142/142 74/83/83 112/146/146 
f 112/146/146 74/83/83 111/145/145 
f 74/83/83 62/71/71 111/145/145 
f 111/145/145 62/71/71 59/68/68 
f 111/145/145 59/68/68 106/134/134 
f 106/134/134 59/68/68 56/67/67 
f 106/134/134 56/67/67 105/132/132 
f 105/130/130 56/62/62 54/60/60 
f 105/130/130 54/60/60 104/128/128 
f 54/60/60 52/58/58 104/128/128 
f 104/128/128 52/58/58 103/126/126 
f 52/58/58 49/55/55 103/126/126 
f 103/126/126 49/55/55 47/53/53 
f 103/126/126 47/53/53 107/136/136 
f 107/136/136 47/53/53 46/52/52 
f 107/136/136 46/52/52 108/138/138 
f 108/138/138 46/52/52 70/79/79 
f 108/138/138 70/79/79 109/140/140 
f 71/80/80 109/140/140 70/79/79 
# 202 faces

