

mtllib B_RightLegDog.mtl

#
# object B_Right_Dog_Leg
#

v  -0.0705 -0.1503 0.0024
v  -0.0638 -0.2090 0.0007
v  -0.0691 -0.1531 0.0279
v  -0.0537 -0.2049 -0.0361
v  -0.0573 -0.1460 -0.0388
v  -0.0331 -0.2015 -0.0592
v  -0.0279 -0.1396 -0.0671
v  0.0012 -0.2024 -0.0610
v  0.0053 -0.1435 -0.0681
v  0.0262 -0.1456 -0.0513
v  0.0183 -0.2037 -0.0421
v  0.0336 -0.1531 -0.0171
v  0.0209 -0.2065 -0.0151
v  0.0303 -0.1600 0.0101
v  0.0106 -0.2129 0.0148
v  0.0187 -0.1639 0.0356
v  -0.0123 -0.2147 0.0326
v  -0.0044 -0.1650 0.0503
v  -0.0305 -0.1633 0.0547
v  -0.0342 -0.2141 0.0360
v  -0.0531 -0.2109 0.0259
v  -0.0545 -0.1584 0.0492
v  -0.0347 -0.2622 0.0233
v  -0.0147 -0.2635 0.0207
v  -0.0547 -0.2619 0.0115
v  0.0054 -0.2659 0.0074
v  -0.0602 -0.2646 -0.0110
v  -0.0472 -0.2707 -0.0381
v  -0.0241 -0.2706 -0.0483
v  -0.0014 -0.2685 -0.0475
v  0.0145 -0.2660 -0.0189
v  0.0109 -0.2663 -0.0360
v  -0.0607 -0.2734 0.0106
v  -0.0589 -0.2814 0.0298
v  -0.0331 -0.2723 0.0425
v  -0.0432 -0.2886 0.0585
v  -0.0099 -0.2918 0.0584
v  -0.0063 -0.2734 0.0342
v  0.0119 -0.2883 0.0314
v  0.0156 -0.2797 0.0041
v  0.0152 -0.3124 0.0264
v  0.0173 -0.3121 -0.0076
v  -0.0052 -0.3132 0.0579
v  0.0082 -0.3115 -0.0322
v  -0.0424 -0.3189 0.0585
v  -0.0626 -0.3175 0.0247
v  -0.0643 -0.3148 -0.0008
v  -0.0470 -0.3157 -0.0356
v  -0.0076 -0.3141 -0.0437
v  -0.0299 -0.3144 -0.0444
v  -0.0571 -0.0959 0.0845
v  -0.0261 -0.1033 0.0896
v  -0.0149 -0.0753 0.0953
v  -0.0316 -0.0472 0.0960
v  0.0047 -0.1067 0.0785
v  0.0173 -0.0674 0.0807
v  -0.0766 -0.0800 0.0573
v  -0.0784 -0.0800 0.0081
v  -0.0659 -0.0834 -0.0401
v  -0.0633 -0.0096 0.0584
v  -0.0742 -0.0174 0.0059
v  -0.0589 -0.0185 -0.0436
v  -0.0490 0.0384 0.0367
v  -0.0606 0.0200 -0.0062
v  -0.0467 0.0133 -0.0458
v  -0.0211 0.0078 -0.0720
v  0.0131 0.0055 -0.0902
v  0.0013 -0.0309 -0.0951
v  -0.0306 -0.0222 -0.0755
v  0.0253 -0.0403 -0.0974
v  0.0411 -0.0038 -0.0939
v  0.0439 -0.0472 -0.0906
v  0.0620 -0.0125 -0.0854
v  0.0745 -0.0246 -0.0700
v  0.0663 -0.0549 -0.0699
v  0.0784 -0.0368 -0.0501
v  0.0706 -0.0567 -0.0189
v  0.0680 -0.0711 -0.0241
v  -0.0502 -0.0388 0.0877
v  -0.0290 0.0018 0.0848
v  -0.0197 -0.0359 0.0974
v  0.0021 -0.0609 0.0935
v  0.0301 -0.1059 0.0559
v  0.0358 -0.0750 0.0572
v  0.0467 -0.1043 0.0166
v  0.0510 -0.0745 0.0240
v  0.0559 -0.1034 -0.0244
v  0.0445 -0.1037 -0.0627
v  0.0177 -0.1036 -0.0827
v  -0.0122 -0.0949 -0.0872
v  -0.0440 -0.0862 -0.0700
v  -0.0233 0.0596 0.0583
v  0.0533 0.0157 -0.0872
v  -0.0137 0.0274 -0.0660
v  -0.0367 0.0318 -0.0444
v  -0.0466 0.0427 -0.0144
v  -0.0342 0.0651 0.0223
v  -0.0110 0.0878 0.0414
v  0.0261 0.0402 -0.0777
v  0.0490 0.0301 -0.0837
v  0.0445 0.0477 -0.0768
v  -0.0135 0.0858 0.0010
v  0.0060 0.1020 0.0124
v  0.0087 0.0987 -0.0076
v  -0.0261 0.0640 -0.0220
v  -0.0180 0.0555 -0.0416
v  -0.0010 0.0465 -0.0610
v  0.0073 0.0836 -0.0337
v  0.0112 0.0560 -0.0613
v  0.0293 0.0706 -0.0600
v  -0.0026 0.0720 -0.0387
# 111 vertices

vn -0.9778 -0.1076 -0.1799
vn -0.9891 -0.1192 0.0860
vn -0.9361 -0.2111 0.2814
vn -0.8457 -0.0820 -0.5273
vn -0.8146 -0.1153 -0.5685
vn -0.4845 -0.1270 -0.8655
vn -0.3556 -0.1934 -0.9144
vn 0.3009 -0.1720 -0.9380
vn 0.2270 -0.3033 -0.9255
vn 0.7631 -0.3365 -0.5518
vn 0.8795 -0.1841 -0.4388
vn 0.9540 -0.2939 -0.0588
vn 0.9806 -0.1722 -0.0939
vn 0.9645 -0.2588 0.0529
vn 0.9359 -0.2212 0.2741
vn 0.8965 -0.3073 0.3191
vn 0.8113 -0.2489 0.5291
vn 0.7380 -0.3524 0.5755
vn 0.3269 -0.3211 0.8888
vn 0.3876 -0.4013 0.8299
vn -0.0646 -0.4147 0.9077
vn -0.1858 -0.2895 0.9390
vn -0.6667 -0.2561 0.6999
vn -0.5246 -0.4033 0.7498
vn -0.1957 -0.2466 0.9492
vn 0.4289 -0.2154 0.8773
vn -0.8427 -0.1466 0.5181
vn 0.7743 -0.1627 0.6116
vn -0.9862 -0.0685 -0.1507
vn -0.7014 -0.0488 -0.7111
vn -0.3007 -0.1543 -0.9412
vn 0.5206 -0.1840 -0.8337
vn 0.9413 -0.1294 0.3118
vn 0.9734 -0.0921 -0.2096
vn 0.9250 -0.1313 -0.3567
vn -0.9750 0.1250 -0.1837
vn -0.8743 0.3481 0.3384
vn -0.7570 0.3502 0.5516
vn -0.3823 0.7175 0.5823
vn -0.8134 0.4556 0.3617
vn -0.0667 0.8238 0.5629
vn -0.5267 0.3485 0.7753
vn 0.3116 0.4116 0.8565
vn 0.4001 0.7589 0.5138
vn 0.2234 0.8622 0.4546
vn 0.8112 0.3605 0.4605
vn 0.6649 0.6551 0.3589
vn 0.9539 0.2546 0.1587
vn 0.8070 0.5230 0.2742
vn 0.9639 0.0451 0.2625
vn 0.9946 0.0176 -0.1018
vn 0.5958 0.0490 0.8016
vn 0.9832 0.0118 -0.1821
vn 0.9369 -0.0313 -0.3482
vn 0.0118 -0.0098 0.9999
vn -0.9311 0.0274 0.3638
vn -0.8593 -0.0254 0.5109
vn -0.9966 0.0528 -0.0625
vn -0.6209 -0.0390 -0.7829
vn -0.7883 -0.0372 -0.6142
vn 0.7925 -0.1155 -0.5988
vn 0.8705 -0.0939 -0.4832
vn 0.9748 -0.0763 -0.2095
vn 0.4672 -0.1212 -0.8758
vn 0.2345 -0.1153 -0.9653
vn -0.1114 -0.0723 -0.9911
vn -0.2832 -0.0606 -0.9571
vn -0.0782 -0.9956 -0.0509
vn 0.0274 -0.9991 -0.0332
vn -0.0528 -0.9974 -0.0489
vn 0.0567 -0.9984 -0.0078
vn 0.0801 -0.9966 -0.0195
vn 0.0978 -0.9952 -0.0039
vn 0.0840 -0.9963 -0.0195
vn 0.0098 -0.9999 -0.0137
vn 0.0332 -0.9994 -0.0059
vn -0.2250 -0.9704 -0.0880
vn -0.5460 -0.1977 0.8141
vn -0.0411 -0.3936 0.9184
vn 0.1586 -0.2075 0.9653
vn -0.1666 -0.0078 0.9860
vn 0.4051 -0.3620 0.8395
vn 0.5839 -0.2684 0.7661
vn -0.9484 0.0117 0.3168
vn -0.9961 -0.0410 -0.0781
vn -0.9209 -0.0254 -0.3891
vn -0.8391 0.3169 0.4421
vn -0.9790 0.1954 -0.0586
vn -0.8542 0.1720 -0.4906
vn -0.8499 0.4602 0.2565
vn -0.9072 0.3754 -0.1897
vn -0.7641 0.3479 -0.5433
vn -0.5314 0.3360 -0.7776
vn -0.2033 0.2991 -0.9323
vn -0.3282 0.1133 -0.9378
vn -0.6036 0.1485 -0.7833
vn 0.0685 -0.0606 -0.9958
vn 0.2014 0.0880 -0.9756
vn 0.4874 -0.2173 -0.8457
vn 0.6042 -0.0411 -0.7958
vn 0.8354 -0.1585 -0.5263
vn 0.8187 -0.3408 -0.4622
vn 0.9617 -0.2468 -0.1195
vn 0.9519 -0.2644 0.1547
vn 0.9441 -0.3271 0.0411
vn -0.5793 0.1820 0.7946
vn -0.6030 0.3622 0.7107
vn -0.2116 0.1058 0.9716
vn 0.1957 -0.1957 0.9609
vn 0.7642 -0.2822 0.5800
vn 0.8285 -0.1782 0.5308
vn 0.8904 -0.2759 0.3620
vn 0.8990 -0.2037 0.3878
vn 0.9139 -0.3972 -0.0841
vn 0.9322 -0.3094 0.1880
vn 0.9202 -0.2447 0.3054
vn 0.7532 -0.4147 -0.5106
vn 0.3443 -0.3561 -0.8687
vn -0.2383 -0.1856 -0.9533
vn -0.6777 -0.0664 -0.7324
vn -0.7726 0.4890 0.4049
vn 0.2346 0.2229 -0.9462
vn -0.4693 0.4615 -0.7528
vn -0.6553 0.4851 -0.5790
vn -0.8212 0.5201 -0.2346
vn -0.7903 0.6103 0.0548
vn -0.7570 0.6319 0.1663
vn -0.2954 0.4343 -0.8510
vn -0.1994 0.3891 -0.8994
vn 0.1623 0.2503 -0.9545
vn 0.3207 0.2444 -0.9151
vn -0.0470 0.3895 -0.9198
vn -0.6873 0.7011 -0.1900
vn -0.8157 0.5321 -0.2269
vn -0.6282 0.7613 -0.1605
vn -0.5989 0.7594 -0.2544
vn -0.5263 0.7826 -0.3326
vn -0.6796 0.6345 -0.3682
vn -0.5538 0.5597 -0.6165
vn -0.4438 0.5181 -0.7312
vn -0.4751 0.7196 -0.5064
vn -0.3890 0.5474 -0.7409
vn -0.3009 0.5862 -0.7522
vn -0.4226 0.5184 -0.7434
vn -0.5181 0.6315 -0.5768
vn -0.4854 0.6459 -0.5892
# 146 vertex normals

vt 0.5231 0.8285 0.0000
vt 0.4795 0.7980 0.0000
vt 0.5102 0.8477 0.0000
vt 0.5010 0.7686 0.0000
vt 0.5472 0.7965 0.0000
vt 0.5192 0.7461 0.0000
vt 0.5728 0.7678 0.0000
vt 0.5338 0.7182 0.0000
vt 0.5858 0.7391 0.0000
vt 0.5937 0.7150 0.0000
vt 0.5402 0.6961 0.0000
vt 0.5936 0.6811 0.0000
vt 0.5418 0.6715 0.0000
vt 0.5901 0.6547 0.0000
vt 0.3791 0.8698 0.0000
vt 0.4104 0.9104 0.0000
vt 0.4068 0.8572 0.0000
vt 0.4344 0.9009 0.0000
vt 0.4318 0.8452 0.0000
vt 0.4563 0.8897 0.0000
vt 0.4763 0.8773 0.0000
vt 0.4497 0.8337 0.0000
vt 0.4652 0.8198 0.0000
vt 0.4945 0.8648 0.0000
vt 0.4234 0.7965 0.0000
vt 0.4072 0.8056 0.0000
vt 0.4368 0.7799 0.0000
vt 0.3854 0.8106 0.0000
vt 0.4434 0.7594 0.0000
vt 0.4518 0.7317 0.0000
vt 0.4638 0.7110 0.0000
vt 0.4758 0.6932 0.0000
vt 0.3595 0.8158 0.0000
vt 0.4850 0.6625 0.0000
vt 0.4830 0.6790 0.0000
vt 0.9094 0.6196 0.0000
vt 0.9244 0.6064 0.0000
vt 0.9168 0.5997 0.0000
vt 0.9058 0.5820 0.0000
vt 0.9354 0.5927 0.0000
vt 0.9212 0.5699 0.0000
vt 0.9451 0.5645 0.0000
vt 0.9260 0.5411 0.0000
vt 0.9010 0.5545 0.0000
vt 0.8918 0.5690 0.0000
vt 0.8966 0.5340 0.0000
vt 0.8729 0.5561 0.0000
vt 0.8715 0.5399 0.0000
vt 0.8475 0.5484 0.0000
vt 0.8987 0.5112 0.0000
vt 0.8664 0.5082 0.0000
vt 0.9330 0.5224 0.0000
vt 0.8498 0.5527 0.0000
vt 0.8416 0.5081 0.0000
vt 0.9632 0.5421 0.0000
vt 0.9670 0.6054 0.0000
vt 0.9736 0.5686 0.0000
vt 0.9575 0.6279 0.0000
vt 0.9039 0.6470 0.0000
vt 0.9427 0.6614 0.0000
vt 0.9161 0.7124 0.0000
vt 0.8756 0.7001 0.0000
vt 0.8708 0.7158 0.0000
vt 0.8826 0.6859 0.0000
vt 0.9244 0.6957 0.0000
vt 0.8929 0.6674 0.0000
vt 0.9329 0.6767 0.0000
vt 0.0201 0.7560 0.0000
vt 0.0371 0.7615 0.0000
vt 0.0100 0.6975 0.0000
vt 0.0631 0.6668 0.0000
vt 0.0280 0.6655 0.0000
vt 0.0726 0.7506 0.0000
vt 0.0577 0.7610 0.0000
vt 0.0822 0.7283 0.0000
vt 0.0809 0.6969 0.0000
vt 0.0114 0.7212 0.0000
vt 0.5327 0.9206 0.0000
vt 0.5129 0.9336 0.0000
vt 0.5270 0.9616 0.0000
vt 0.5562 0.9707 0.0000
vt 0.4895 0.9438 0.0000
vt 0.5041 0.9846 0.0000
vt 0.5555 0.9053 0.0000
vt 0.5736 0.8690 0.0000
vt 0.5930 0.8312 0.0000
vt 0.6066 0.9466 0.0000
vt 0.6220 0.8994 0.0000
vt 0.6448 0.8603 0.0000
vt 0.6558 0.9514 0.0000
vt 0.6581 0.9065 0.0000
vt 0.6739 0.8711 0.0000
vt 0.6913 0.8429 0.0000
vt 0.7117 0.8156 0.0000
vt 0.6767 0.8008 0.0000
vt 0.6638 0.8295 0.0000
vt 0.6809 0.7817 0.0000
vt 0.7189 0.7909 0.0000
vt 0.6833 0.7662 0.0000
vt 0.7218 0.7713 0.0000
vt 0.7172 0.7505 0.0000
vt 0.6879 0.7408 0.0000
vt 0.7112 0.7286 0.0000
vt 0.6951 0.6963 0.0000
vt 0.6792 0.6976 0.0000
vt 0.5707 0.9582 0.0000
vt 0.6038 0.9899 0.0000
vt 0.5610 0.9866 0.0000
vt 0.5261 0.9843 0.0000
vt 0.4631 0.9541 0.0000
vt 0.4739 0.9828 0.0000
vt 0.4252 0.9642 0.0000
vt 0.4395 0.9900 0.0000
vt 0.6451 0.6928 0.0000
vt 0.6458 0.6540 0.0000
vt 0.6756 0.6514 0.0000
vt 0.6377 0.7272 0.0000
vt 0.6261 0.7525 0.0000
vt 0.6202 0.7769 0.0000
vt 0.6088 0.8049 0.0000
vt 0.6695 0.9862 0.0000
vt 0.7435 0.7949 0.0000
vt 0.7091 0.8535 0.0000
vt 0.6918 0.8782 0.0000
vt 0.6833 0.9083 0.0000
vt 0.6887 0.9488 0.0000
vt 0.7048 0.9760 0.0000
vt 0.7470 0.8340 0.0000
vt 0.0515 0.6188 0.0000
vt 0.0409 0.5950 0.0000
vt 0.0278 0.5917 0.0000
vt 0.0572 0.6002 0.0000
vt 0.7251 0.9393 0.0000
vt 0.1778 0.6644 0.0000
vt 0.1558 0.6420 0.0000
vt 0.1385 0.6642 0.0000
vt 0.1371 0.6382 0.0000
vt 0.7122 0.9096 0.0000
vt 0.7184 0.8876 0.0000
vt 0.7294 0.8623 0.0000
vt 0.1091 0.6387 0.0000
vt 0.0724 0.6350 0.0000
vt 0.0829 0.6155 0.0000
vt 0.7438 0.8630 0.0000
vt 0.7383 0.8956 0.0000
vt 0.0987 0.6496 0.0000
# 146 texture coords

o B_Right_Dog_Leg
g B_Right_Dog_Leg
usemtl Material__27
s 1
f 1/1/1 2/2/2 3/3/3 
f 2/2/2 1/1/1 4/4/4 
f 1/1/1 5/5/5 4/4/4 
f 4/4/4 5/5/5 6/6/6 
f 5/5/5 7/7/7 6/6/6 
f 6/6/6 7/7/7 8/8/8 
f 7/7/7 9/9/9 8/8/8 
f 8/8/8 9/9/9 10/10/10 
f 8/8/8 10/10/10 11/11/11 
f 11/11/11 10/10/10 12/12/12 
f 11/11/11 12/12/12 13/13/13 
f 12/12/12 14/14/14 13/13/13 
f 13/15/15 14/16/16 15/17/17 
f 14/16/16 16/18/18 15/17/17 
f 15/17/17 16/18/18 17/19/19 
f 16/18/18 18/20/20 17/19/19 
f 17/19/19 18/20/20 19/21/21 
f 17/19/19 19/21/21 20/22/22 
f 20/22/22 19/21/21 21/23/23 
f 19/21/21 22/24/24 21/23/23 
f 21/23/23 22/24/24 3/3/3 
f 21/23/23 3/3/3 2/2/2 
f 17/19/19 20/22/22 23/25/25 
f 17/19/19 23/25/25 24/26/26 
f 25/27/27 23/25/25 21/23/23 
f 23/25/25 20/22/22 21/23/23 
f 17/19/19 24/26/26 15/17/17 
f 24/26/26 26/28/28 15/17/17 
f 27/29/29 25/27/27 2/2/2 
f 25/27/27 21/23/23 2/2/2 
f 28/30/30 27/29/29 4/4/4 
f 27/29/29 2/2/2 4/4/4 
f 29/31/31 28/30/30 4/4/4 
f 29/31/31 4/4/4 6/6/6 
f 30/32/32 29/31/31 8/8/8 
f 29/31/31 6/6/6 8/8/8 
f 15/17/17 26/28/28 31/33/33 
f 15/17/17 31/33/33 13/15/15 
f 13/13/13 31/34/34 32/35/35 
f 13/13/13 32/35/35 11/11/11 
f 11/11/11 32/35/35 30/32/32 
f 11/11/11 30/32/32 8/8/8 
f 27/36/36 33/37/37 25/38/38 
f 33/37/37 23/39/39 25/38/38 
f 23/39/39 33/37/37 34/40/40 
f 23/39/39 34/40/40 35/41/41 
f 34/40/40 36/42/42 35/41/41 
f 36/42/42 37/43/43 35/41/41 
f 37/43/43 38/44/44 35/41/41 
f 35/41/41 38/44/44 24/45/45 
f 35/41/41 24/45/45 23/39/39 
f 38/44/44 37/43/43 39/46/46 
f 38/44/44 26/47/47 24/45/45 
f 26/47/47 38/44/44 39/46/46 
f 26/47/47 39/46/46 40/48/48 
f 40/48/48 31/49/49 26/47/47 
f 40/48/48 39/46/46 41/50/50 
f 40/48/48 41/50/50 42/51/51 
f 43/52/52 41/50/50 39/46/46 
f 43/52/52 39/46/46 37/43/43 
f 31/53/53 40/48/48 42/51/51 
f 31/53/53 42/51/51 44/54/54 
f 45/55/55 43/52/52 37/43/43 
f 45/55/55 37/43/43 36/42/42 
f 46/56/56 45/57/57 36/42/42 
f 46/56/56 36/42/42 34/40/40 
f 46/56/56 34/40/40 47/58/58 
f 34/40/40 33/37/37 47/58/58 
f 47/58/58 33/37/37 27/36/36 
f 27/36/36 28/59/59 48/60/60 
f 27/36/36 48/60/60 47/58/58 
f 44/61/61 32/62/62 31/63/63 
f 32/62/62 44/61/61 30/64/64 
f 44/61/61 49/65/65 30/64/64 
f 30/64/64 49/65/65 29/66/66 
f 49/65/65 50/67/67 29/66/66 
f 29/66/66 50/67/67 28/59/59 
f 50/67/67 48/60/60 28/59/59 
f 48/68/68 50/69/69 46/70/70 
f 43/71/71 45/72/72 44/73/73 
f 45/72/72 49/74/74 44/73/73 
f 43/71/71 44/73/73 42/75/75 
f 42/75/75 41/76/76 43/71/71 
f 50/69/69 49/74/74 45/72/72 
f 50/69/69 45/72/72 46/70/70 
f 46/70/70 47/77/77 48/68/68 
f 51/78/78 52/79/79 53/80/80 
f 51/78/78 53/80/80 54/81/81 
f 53/80/80 52/79/79 55/82/82 
f 53/80/80 55/82/82 56/83/83 
f 55/82/82 52/79/79 19/21/21 
f 55/82/82 19/21/21 18/20/20 
f 51/78/78 22/24/24 52/79/79 
f 22/24/24 19/21/21 52/79/79 
f 57/84/84 3/3/3 51/78/78 
f 3/3/3 22/24/24 51/78/78 
f 57/84/84 58/85/85 3/3/3 
f 58/85/85 1/1/1 3/3/3 
f 1/1/1 58/85/85 59/86/86 
f 1/1/1 59/86/86 5/5/5 
f 60/87/87 61/88/88 57/84/84 
f 61/88/88 58/85/85 57/84/84 
f 58/85/85 61/88/88 59/86/86 
f 61/88/88 62/89/89 59/86/86 
f 63/90/90 64/91/91 61/88/88 
f 63/90/90 61/88/88 60/87/87 
f 61/88/88 64/91/91 62/89/89 
f 64/91/91 65/92/92 62/89/89 
f 66/93/93 67/94/94 68/95/95 
f 66/93/93 68/95/95 69/96/96 
f 70/97/97 71/98/98 72/99/99 
f 71/98/98 73/100/100 72/99/99 
f 73/100/100 74/101/101 72/99/99 
f 74/101/101 75/102/102 72/99/99 
f 76/103/103 75/102/102 74/101/101 
f 76/103/103 77/104/104 78/105/105 
f 76/103/103 78/105/105 75/102/102 
f 79/106/106 80/107/107 60/87/87 
f 79/106/106 57/84/84 51/78/78 
f 80/107/107 79/106/106 81/108/108 
f 79/106/106 54/81/81 81/108/108 
f 82/109/109 53/80/80 56/83/83 
f 54/81/81 53/80/80 82/109/109 
f 54/81/81 82/109/109 81/108/108 
f 83/110/110 55/82/82 18/20/20 
f 83/110/110 18/20/20 16/18/18 
f 56/83/83 55/82/82 83/110/110 
f 56/83/83 83/110/110 84/111/111 
f 85/112/112 83/110/110 16/18/18 
f 85/112/112 16/18/18 14/16/16 
f 84/111/111 83/110/110 86/113/113 
f 83/110/110 85/112/112 86/113/113 
f 87/114/114 85/115/115 12/12/12 
f 85/115/115 14/14/14 12/12/12 
f 86/116/116 85/115/115 78/105/105 
f 85/115/115 87/114/114 78/105/105 
f 88/117/117 87/114/114 10/10/10 
f 87/114/114 12/12/12 10/10/10 
f 78/105/105 87/114/114 88/117/117 
f 78/105/105 88/117/117 75/102/102 
f 89/118/118 88/117/117 10/10/10 
f 89/118/118 10/10/10 9/9/9 
f 75/102/102 88/117/117 72/99/99 
f 88/117/117 89/118/118 72/99/99 
f 90/119/119 89/118/118 9/9/9 
f 90/119/119 9/9/9 7/7/7 
f 70/97/97 72/99/99 89/118/118 
f 90/119/119 7/7/7 91/120/120 
f 68/95/95 90/119/119 69/96/96 
f 90/119/119 91/120/120 69/96/96 
f 59/86/86 91/120/120 5/5/5 
f 91/120/120 7/7/7 5/5/5 
f 69/96/96 91/120/120 62/89/89 
f 91/120/120 59/86/86 62/89/89 
f 69/96/96 62/89/89 65/92/92 
f 69/96/96 65/92/92 66/93/93 
f 86/116/116 78/105/105 77/104/104 
f 80/107/107 92/121/121 63/90/90 
f 80/107/107 63/90/90 60/87/87 
f 93/122/122 73/100/100 71/98/98 
f 71/98/98 67/94/94 93/122/122 
f 71/98/98 70/97/97 67/94/94 
f 70/97/97 68/95/95 67/94/94 
f 70/97/97 89/118/118 90/119/119 
f 70/97/97 90/119/119 68/95/95 
f 60/87/87 57/84/84 79/106/106 
f 51/78/78 54/81/81 79/106/106 
f 94/123/123 66/93/93 95/124/124 
f 66/93/93 65/92/92 95/124/124 
f 95/124/124 65/92/92 96/125/125 
f 65/92/92 64/91/91 96/125/125 
f 63/90/90 92/121/121 97/126/126 
f 92/121/121 98/127/127 97/126/126 
f 93/122/122 67/94/94 99/128/128 
f 64/91/91 63/90/90 96/125/125 
f 63/90/90 97/126/126 96/125/125 
f 99/129/129 100/130/130 93/131/131 
f 99/128/128 67/94/94 94/123/123 
f 67/94/94 66/93/93 94/123/123 
f 101/132/132 100/130/130 99/129/129 
f 98/127/127 102/133/133 97/126/126 
f 98/134/134 103/135/135 102/136/136 
f 103/135/135 104/137/137 102/136/136 
f 97/126/126 102/133/133 105/138/138 
f 97/126/126 105/138/138 96/125/125 
f 96/125/125 105/138/138 95/124/124 
f 105/138/138 106/139/139 95/124/124 
f 95/124/124 106/139/139 94/123/123 
f 106/139/139 107/140/140 94/123/123 
f 94/123/123 107/140/140 99/128/128 
f 108/141/141 102/136/136 104/137/137 
f 99/129/129 109/142/142 110/143/143 
f 99/129/129 110/143/143 101/132/132 
f 99/128/128 107/140/140 109/144/144 
f 107/140/140 106/139/139 111/145/145 
f 107/140/140 111/145/145 109/144/144 
f 106/139/139 105/138/138 111/145/145 
f 105/138/138 102/133/133 111/145/145 
f 102/136/136 108/141/141 111/146/146 
f 109/142/142 111/146/146 110/143/143 
f 111/146/146 108/141/141 110/143/143 
# 201 faces

