
mtllib F_LeftLegDog.mtl

#
# object F_Left_Dog_Leg
#

v  -0.0178 -0.0784 0.0788
v  0.0156 -0.0647 0.0909
v  -0.0034 -0.0603 0.0907
v  0.0159 -0.0256 0.0922
v  -0.0204 -0.0960 0.0769
v  -0.0094 -0.1238 0.0776
v  0.0555 0.0327 0.0438
v  0.0458 -0.0052 0.0716
v  0.0591 -0.0202 0.0500
v  0.0591 0.0367 -0.0324
v  0.0676 -0.0044 0.0101
v  0.0652 -0.0173 -0.0288
v  0.0237 0.0905 -0.0510
v  0.0467 0.0708 0.0046
v  0.0254 0.0137 -0.0905
v  0.0306 0.0574 -0.0783
v  -0.0621 -0.0962 0.0314
v  -0.0676 -0.1159 0.0032
v  -0.0608 -0.1388 0.0039
v  -0.0345 -0.1284 0.0615
v  -0.0363 -0.1810 0.0285
v  -0.0477 -0.1765 0.0028
v  -0.0586 -0.1429 -0.0225
v  -0.0481 -0.1763 -0.0213
v  0.0193 -0.1301 0.0706
v  0.0362 -0.0645 0.0787
v  -0.0181 -0.1824 0.0437
v  0.0077 -0.1830 0.0433
v  0.0428 -0.1274 0.0481
v  0.0537 -0.0629 0.0557
v  0.0249 -0.1810 0.0319
v  0.0529 -0.1221 0.0137
v  0.0651 -0.0600 0.0154
v  0.0368 -0.1802 0.0082
v  0.0426 -0.0588 -0.0633
v  0.0608 -0.0588 -0.0277
v  0.0300 -0.1166 -0.0548
v  0.0493 -0.1191 -0.0239
v  0.0235 -0.1818 -0.0509
v  0.0367 -0.1812 -0.0208
v  0.0197 -0.0480 -0.0851
v  0.0043 -0.0349 -0.0922
v  -0.0350 -0.1047 -0.0660
v  -0.0285 -0.1251 -0.0651
v  -0.0514 -0.1201 -0.0508
v  -0.0468 -0.1363 -0.0489
v  -0.0240 -0.1729 -0.0671
v  -0.0402 -0.1737 -0.0490
v  -0.0655 -0.1241 -0.0216
v  0.0347 -0.0028 0.0814
v  0.0364 0.0784 0.0148
v  0.0473 0.0428 0.0542
v  0.0454 0.0439 0.0603
v  0.0349 0.0799 0.0228
v  0.0557 -0.0021 -0.0580
v  -0.0199 -0.0790 -0.0772
v  -0.0011 -0.1111 -0.0719
v  -0.0001 -0.1756 -0.0691
v  -0.0413 -0.1000 0.0559
v  -0.0380 -0.2390 0.0033
v  -0.0250 -0.2396 0.0286
v  0.0014 -0.2397 0.0381
v  0.0283 -0.2412 0.0201
v  0.0327 -0.2420 -0.0117
v  0.0141 -0.2436 -0.0403
v  -0.0190 -0.2438 -0.0436
v  -0.0342 -0.2422 -0.0286
v  -0.0001 -0.2781 0.0427
v  0.0239 -0.2795 0.0337
v  -0.0235 -0.2792 0.0369
v  0.0312 -0.2860 0.0039
v  0.0155 -0.2943 -0.0248
v  -0.0139 -0.2954 -0.0303
v  0.0131 -0.3299 -0.0171
v  -0.0174 -0.3285 -0.0173
v  -0.0323 -0.2860 -0.0109
v  -0.0358 -0.3222 0.0003
v  0.0316 -0.3307 0.0113
v  -0.0362 -0.2812 0.0137
v  -0.0402 -0.3258 0.0250
v  -0.0336 -0.2937 0.0497
v  -0.0358 -0.3270 0.0540
v  0.0319 -0.2921 0.0426
v  0.0340 -0.3302 0.0451
v  -0.0169 -0.2969 0.0709
v  0.0170 -0.2959 0.0715
v  0.0231 -0.3265 0.0739
v  -0.0159 -0.3236 0.0788
v  0.0211 0.0896 0.0033
# 89 vertices

vn -0.4091 -0.1801 0.8945
vn 0.1274 -0.1666 0.9778
vn -0.0725 -0.2626 0.9622
vn 0.3723 -0.0509 0.9267
vn -0.5213 -0.0686 0.8506
vn -0.2094 -0.3092 0.9276
vn 0.9346 0.2312 0.2704
vn 0.7915 0.0842 0.6054
vn 0.9191 0.0000 0.3939
vn 0.9353 0.2627 -0.2372
vn 0.9945 0.0763 0.0724
vn 0.9725 -0.0430 -0.2289
vn 0.7832 0.6011 -0.1586
vn 0.7992 0.5955 0.0823
vn 0.6960 0.0274 -0.7175
vn 0.8691 0.2466 -0.4287
vn -0.8491 -0.2133 0.4832
vn -0.9446 -0.2718 0.1838
vn -0.9260 -0.3048 0.2227
vn -0.6986 -0.2426 0.6731
vn -0.8195 -0.2406 0.5202
vn -0.9567 -0.2524 0.1448
vn -0.9328 -0.2933 -0.2093
vn -0.9649 -0.2266 -0.1328
vn 0.3918 -0.3957 0.8306
vn 0.6940 -0.1215 0.7097
vn -0.2915 -0.3346 0.8961
vn 0.2899 -0.3114 0.9050
vn 0.8267 -0.2997 0.4761
vn 0.9056 -0.1411 0.3999
vn 0.6937 -0.2783 0.6643
vn 0.9684 -0.2269 0.1037
vn 0.9911 -0.1234 0.0509
vn 0.9665 -0.2000 0.1608
vn 0.7470 -0.2073 -0.6316
vn 0.9263 -0.1763 -0.3329
vn 0.6960 -0.1603 -0.6999
vn 0.9444 -0.1979 -0.2626
vn 0.7785 -0.1760 -0.6025
vn 0.9482 -0.1665 -0.2704
vn 0.4050 -0.2172 -0.8882
vn 0.2230 -0.2484 -0.9426
vn -0.3261 -0.2011 -0.9237
vn -0.3891 -0.1056 -0.9151
vn -0.5528 -0.2305 -0.8008
vn -0.6528 -0.1388 -0.7447
vn -0.4927 -0.1545 -0.8564
vn -0.7155 -0.2209 -0.6627
vn -0.9168 -0.2092 -0.3401
vn -0.8601 -0.2483 -0.4457
vn -0.9205 -0.3127 -0.2345
vn -0.8435 -0.2948 -0.4491
vn 0.6686 0.0275 0.7431
vn 0.7389 0.6664 0.1000
vn 0.8759 0.3272 0.3547
vn 0.8748 0.2001 0.4413
vn 0.8208 0.5641 0.0901
vn 0.8314 0.0020 -0.5556
vn -0.0547 -0.2851 -0.9569
vn 0.1230 -0.1875 -0.9745
vn 0.1995 -0.1643 -0.9660
vn -0.7281 -0.0215 0.6851
vn -0.9840 -0.1115 0.1389
vn -0.7038 -0.0313 0.7097
vn 0.1529 0.0078 0.9882
vn 0.8843 -0.0118 0.4667
vn 0.9703 -0.1098 -0.2156
vn 0.5478 -0.2504 -0.7982
vn -0.4337 -0.3106 -0.8458
vn -0.6882 -0.2815 -0.6687
vn -0.9743 -0.1523 -0.1660
vn 0.0568 0.1176 0.9914
vn 0.6821 0.1078 0.7233
vn -0.5205 0.1331 0.8434
vn 0.9976 -0.0666 -0.0176
vn 0.6880 -0.2189 -0.6919
vn -0.1818 -0.2815 -0.9422
vn 0.5334 -0.2344 -0.8127
vn -0.5316 -0.2443 -0.8110
vn -0.2170 -0.2816 -0.9347
vn 0.5932 -0.2095 -0.7773
vn -0.7242 -0.2655 -0.6364
vn -0.7084 -0.1444 -0.6909
vn -0.7336 -0.1565 -0.6613
vn 0.9627 0.0920 -0.2544
vn 0.9755 -0.0137 -0.2194
vn -0.9616 0.0235 0.2736
vn -0.9883 -0.0820 -0.1289
vn -0.9695 0.2443 0.0176
vn -0.9844 0.0449 -0.1699
vn -0.9848 0.0430 -0.1680
vn -0.9962 0.0801 0.0332
vn -0.7510 0.5026 0.4283
vn -0.8710 0.1233 0.4756
vn 0.8529 0.4392 0.2823
vn 0.9630 0.1118 0.2452
vn 0.6032 0.6834 0.4112
vn -0.4410 0.7468 0.4978
vn 0.0235 0.8384 0.5446
vn -0.4487 0.5252 0.7231
vn 0.4648 0.4902 0.7373
vn 0.9244 0.2056 0.3212
vn -0.2506 0.1978 0.9477
vn 0.1333 0.1019 0.9858
vn -0.0840 -0.9965 0.0020
vn -0.0430 -0.9948 0.0919
vn -0.0489 -0.9977 0.0470
vn -0.0606 -0.9928 0.1036
vn -0.0430 -0.9907 0.1290
vn -0.1272 -0.9918 0.0137
vn -0.0996 -0.9906 0.0938
vn -0.0861 -0.9917 -0.0958
vn -0.0469 -0.9989 0.0020
vn 0.5956 0.8033 -0.0000
# 114 vertex normals

vt 0.6901 0.4687 0.0000
vt 0.6787 0.4360 0.0000
vt 0.6951 0.4443 0.0000
vt 0.7002 0.4063 0.0000
vt 0.6778 0.4811 0.0000
vt 0.6519 0.4906 0.0000
vt 0.6679 0.3298 0.0000
vt 0.6786 0.3727 0.0000
vt 0.6515 0.3748 0.0000
vt 0.6056 0.2948 0.0000
vt 0.6247 0.3456 0.0000
vt 0.5884 0.3404 0.0000
vt 0.6127 0.2342 0.0000
vt 0.6492 0.2826 0.0000
vt 0.5414 0.2810 0.0000
vt 0.5742 0.2513 0.0000
vt 0.7106 0.5263 0.0000
vt 0.7013 0.5577 0.0000
vt 0.6807 0.5668 0.0000
vt 0.6625 0.5133 0.0000
vt 0.6291 0.5602 0.0000
vt 0.6464 0.5822 0.0000
vt 0.6863 0.5903 0.0000
vt 0.6566 0.6029 0.0000
vt 0.6292 0.4790 0.0000
vt 0.6603 0.4249 0.0000
vt 0.6137 0.5408 0.0000
vt 0.5940 0.5218 0.0000
vt 0.6066 0.4622 0.0000
vt 0.6386 0.4117 0.0000
vt 0.5772 0.5065 0.0000
vt 0.5803 0.4433 0.0000
vt 0.6066 0.3925 0.0000
vt 0.5541 0.4911 0.0000
vt 0.5403 0.3583 0.0000
vt 0.5725 0.3743 0.0000
vt 0.5209 0.4095 0.0000
vt 0.5506 0.4254 0.0000
vt 0.5007 0.4662 0.0000
vt 0.5283 0.4785 0.0000
vt 0.5192 0.3373 0.0000
vt 0.5104 0.3206 0.0000
vt 0.4624 0.3837 0.0000
vt 0.4633 0.4027 0.0000
vt 0.4389 0.3938 0.0000
vt 0.4395 0.4097 0.0000
vt 0.4579 0.4464 0.0000
vt 0.4363 0.4455 0.0000
vt 0.6698 0.6270 0.0000
vt 0.7020 0.6123 0.0000
vt 0.7022 0.5820 0.0000
vt 0.7175 0.6085 0.0000
vt 0.6920 0.3766 0.0000
vt 0.6626 0.2780 0.0000
vt 0.6822 0.3258 0.0000
vt 0.6871 0.3283 0.0000
vt 0.6691 0.2807 0.0000
vt 0.5698 0.3150 0.0000
vt 0.4819 0.3613 0.0000
vt 0.4916 0.3943 0.0000
vt 0.4781 0.4522 0.0000
vt 0.6879 0.5059 0.0000
vt 0.5944 0.6096 0.0000
vt 0.5809 0.5848 0.0000
vt 0.5627 0.5615 0.0000
vt 0.5347 0.5429 0.0000
vt 0.5058 0.5293 0.0000
vt 0.4750 0.5195 0.0000
vt 0.4438 0.5138 0.0000
vt 0.4240 0.5126 0.0000
vt 0.6036 0.6381 0.0000
vt 0.5423 0.5843 0.0000
vt 0.5220 0.5754 0.0000
vt 0.5502 0.6037 0.0000
vt 0.4946 0.5692 0.0000
vt 0.4636 0.5667 0.0000
vt 0.4357 0.5630 0.0000
vt 0.3516 0.1129 0.0000
vt 0.3748 0.1296 0.0000
vt 0.3566 0.1573 0.0000
vt 0.3338 0.1415 0.0000
vt 0.4098 0.5555 0.0000
vt 0.3959 0.1423 0.0000
vt 0.3778 0.1734 0.0000
vt 0.3073 0.1255 0.0000
vt 0.3292 0.0899 0.0000
vt 0.5581 0.6260 0.0000
vt 0.5603 0.6496 0.0000
vt 0.2290 0.1529 0.0000
vt 0.2186 0.1744 0.0000
vt 0.1905 0.1518 0.0000
vt 0.1930 0.1282 0.0000
vt 0.2265 0.1182 0.0000
vt 0.2005 0.1011 0.0000
vt 0.2851 0.0980 0.0000
vt 0.3045 0.0692 0.0000
vt 0.2817 0.1126 0.0000
vt 0.2416 0.1317 0.0000
vt 0.2590 0.1172 0.0000
vt 0.2347 0.0957 0.0000
vt 0.2613 0.0808 0.0000
vt 0.2781 0.0566 0.0000
vt 0.2189 0.0764 0.0000
vt 0.2490 0.0541 0.0000
vt 0.4777 0.6542 0.0000
vt 0.4467 0.6509 0.0000
vt 0.4471 0.5868 0.0000
vt 0.4217 0.6372 0.0000
vt 0.4212 0.6010 0.0000
vt 0.4963 0.5939 0.0000
vt 0.5102 0.6137 0.0000
vt 0.4741 0.5874 0.0000
vt 0.5063 0.6415 0.0000
vt 0.6597 0.2575 0.0000
# 114 texture coords

o F_Left_Dog_Leg
g F_Left_Dog_Leg
usemtl Material__27
s 1
f 1/1/1 2/2/2 3/3/3 
f 2/2/2 4/4/4 3/3/3 
f 1/1/1 5/5/5 2/2/2 
f 5/5/5 6/6/6 2/2/2 
f 7/7/7 8/8/8 9/9/9 
f 10/10/10 11/11/11 12/12/12 
f 13/13/13 14/14/14 10/10/10 
f 10/10/10 14/14/14 7/7/7 
f 15/15/15 16/16/16 10/10/10 
f 17/17/17 18/18/18 19/19/19 
f 17/17/17 19/19/19 20/20/20 
f 20/20/20 19/19/19 21/21/21 
f 19/19/19 22/22/22 21/21/21 
f 23/23/23 24/24/24 22/22/22 
f 23/23/23 22/22/22 19/19/19 
f 2/2/2 6/6/6 25/25/25 
f 2/2/2 25/25/25 26/26/26 
f 27/27/27 28/28/28 25/25/25 
f 27/27/27 25/25/25 6/6/6 
f 26/26/26 25/25/25 29/29/29 
f 26/26/26 29/29/29 30/30/30 
f 28/28/28 31/31/31 25/25/25 
f 31/31/31 29/29/29 25/25/25 
f 30/30/30 29/29/29 32/32/32 
f 30/30/30 32/32/32 33/33/33 
f 31/31/31 34/34/34 29/29/29 
f 34/34/34 32/32/32 29/29/29 
f 35/35/35 36/36/36 37/37/37 
f 36/36/36 38/38/38 37/37/37 
f 33/33/33 32/32/32 38/38/38 
f 33/33/33 38/38/38 36/36/36 
f 37/37/37 38/38/38 39/39/39 
f 38/38/38 40/40/40 39/39/39 
f 32/32/32 34/34/34 38/38/38 
f 34/34/34 40/40/40 38/38/38 
f 15/15/15 41/41/41 42/42/42 
f 43/43/43 44/44/44 45/45/45 
f 44/44/44 46/46/46 45/45/45 
f 47/47/47 48/48/48 46/46/46 
f 47/47/47 46/46/46 44/44/44 
f 24/24/24 23/23/23 48/49/49 
f 23/23/23 46/50/50 48/49/49 
f 46/50/50 23/23/23 49/51/51 
f 46/50/50 49/51/51 45/52/52 
f 19/19/19 18/18/18 49/51/51 
f 19/19/19 49/51/51 23/23/23 
f 26/26/26 8/8/8 50/53/53 
f 26/26/26 50/53/53 2/2/2 
f 10/10/10 16/16/16 13/13/13 
f 7/7/7 11/11/11 10/10/10 
f 14/14/14 51/54/54 52/55/55 
f 14/14/14 52/55/55 7/7/7 
f 50/53/53 52/55/55 53/56/56 
f 8/8/8 7/7/7 52/55/55 
f 8/8/8 52/55/55 50/53/53 
f 52/55/55 51/54/54 54/57/57 
f 52/55/55 54/57/57 53/56/56 
f 10/10/10 55/58/58 15/15/15 
f 35/35/35 41/41/41 55/58/58 
f 41/41/41 15/15/15 55/58/58 
f 35/35/35 55/58/58 12/12/12 
f 35/35/35 12/12/12 36/36/36 
f 12/12/12 55/58/58 10/10/10 
f 33/33/33 36/36/36 12/12/12 
f 33/33/33 12/12/12 11/11/11 
f 30/30/30 33/33/33 9/9/9 
f 33/33/33 11/11/11 9/9/9 
f 26/26/26 30/30/30 9/9/9 
f 26/26/26 9/9/9 8/8/8 
f 9/9/9 11/11/11 7/7/7 
f 43/43/43 56/59/59 57/60/60 
f 43/43/43 57/60/60 44/44/44 
f 42/42/42 41/41/41 56/59/59 
f 41/41/41 57/60/60 56/59/59 
f 35/35/35 37/37/37 57/60/60 
f 35/35/35 57/60/60 41/41/41 
f 39/39/39 58/61/61 37/37/37 
f 58/61/61 57/60/60 37/37/37 
f 47/47/47 44/44/44 58/61/61 
f 44/44/44 57/60/60 58/61/61 
f 27/27/27 6/6/6 20/20/20 
f 27/27/27 20/20/20 21/21/21 
f 59/62/62 20/20/20 5/5/5 
f 59/62/62 5/5/5 1/1/1 
f 20/20/20 59/62/62 17/17/17 
f 60/63/63 61/64/64 21/21/21 
f 60/63/63 21/21/21 22/22/22 
f 61/64/64 27/27/27 21/21/21 
f 62/65/65 28/28/28 27/27/27 
f 62/65/65 27/27/27 61/64/64 
f 63/66/66 31/31/31 62/65/65 
f 31/31/31 28/28/28 62/65/65 
f 63/66/66 34/34/34 31/31/31 
f 64/67/67 40/40/40 34/34/34 
f 64/67/67 34/34/34 63/66/66 
f 65/68/68 39/39/39 40/40/40 
f 65/68/68 40/40/40 64/67/67 
f 65/68/68 58/61/61 39/39/39 
f 66/69/69 47/47/47 58/61/61 
f 66/69/69 58/61/61 65/68/68 
f 67/70/70 48/48/48 66/69/69 
f 48/48/48 47/47/47 66/69/69 
f 67/71/71 24/24/24 48/49/49 
f 60/63/63 22/22/22 24/24/24 
f 60/63/63 24/24/24 67/71/71 
f 68/72/72 69/73/73 62/65/65 
f 69/73/73 63/66/66 62/65/65 
f 61/64/64 70/74/74 62/65/65 
f 70/74/74 68/72/72 62/65/65 
f 64/67/67 63/66/66 71/75/75 
f 63/66/66 69/73/73 71/75/75 
f 65/68/68 64/67/67 72/76/76 
f 64/67/67 71/75/75 72/76/76 
f 66/69/69 65/68/68 73/77/77 
f 65/68/68 72/76/76 73/77/77 
f 74/78/78 75/79/79 73/80/80 
f 74/78/78 73/80/80 72/81/81 
f 73/77/77 76/82/82 66/69/69 
f 76/82/82 67/70/70 66/69/69 
f 75/79/79 77/83/83 76/84/84 
f 75/79/79 76/84/84 73/80/80 
f 71/85/85 78/86/86 74/78/78 
f 71/85/85 74/78/78 72/81/81 
f 60/63/63 79/87/87 61/64/64 
f 79/87/87 70/74/74 61/64/64 
f 67/71/71 76/88/88 60/63/63 
f 76/88/88 79/87/87 60/63/63 
f 79/89/89 76/90/90 77/91/91 
f 79/89/89 77/91/91 80/92/92 
f 81/93/93 79/89/89 80/92/92 
f 81/93/93 80/92/92 82/94/94 
f 83/95/95 84/96/96 78/86/86 
f 83/95/95 78/86/86 71/85/85 
f 71/85/85 69/97/97 83/95/95 
f 81/93/93 70/98/98 79/89/89 
f 68/99/99 70/98/98 81/93/93 
f 68/99/99 81/93/93 85/100/100 
f 68/99/99 86/101/101 83/95/95 
f 68/99/99 83/95/95 69/97/97 
f 68/99/99 85/100/100 86/101/101 
f 87/102/102 84/96/96 86/101/101 
f 84/96/96 83/95/95 86/101/101 
f 85/100/100 88/103/103 86/101/101 
f 88/103/103 87/104/104 86/101/101 
f 81/93/93 82/94/94 85/100/100 
f 82/94/94 88/103/103 85/100/100 
f 78/105/105 84/106/106 82/107/107 
f 84/106/106 87/108/108 88/109/109 
f 84/106/106 88/109/109 82/107/107 
f 78/105/105 77/110/110 75/111/111 
f 78/105/105 82/107/107 80/112/112 
f 78/105/105 80/112/112 77/110/110 
f 75/111/111 74/113/113 78/105/105 
f 6/6/6 5/5/5 20/20/20 
f 4/4/4 2/2/2 50/53/53 
f 51/54/54 89/114/114 54/57/57 
f 51/54/54 14/14/14 89/114/114 
f 14/14/14 13/13/13 89/114/114 
# 158 faces

