

mtllib F_RightLegDog.mtl

#
# object F_Right_Leg_Dog
#

v  -0.0347 0.0080 0.0814
v  -0.0155 -0.0539 0.0909
v  -0.0159 -0.0148 0.0922
v  0.0345 -0.1176 0.0615
v  0.0204 -0.0852 0.0769
v  0.0095 -0.1130 0.0776
v  -0.0316 -0.3199 0.0113
v  -0.0130 -0.3191 -0.0171
v  0.0175 -0.3177 -0.0173
v  0.0359 -0.3114 0.0003
v  0.0402 -0.3150 0.0250
v  0.0359 -0.3162 0.0540
v  0.0159 -0.3128 0.0788
v  -0.0340 -0.3194 0.0451
v  -0.0230 -0.3157 0.0739
v  0.0169 -0.2861 0.0709
v  0.0337 -0.2829 0.0497
v  -0.0170 -0.2851 0.0715
v  -0.0319 -0.2813 0.0426
v  0.0002 -0.2673 0.0427
v  -0.0237 -0.2687 0.0337
v  0.0236 -0.2684 0.0369
v  0.0364 -0.2704 0.0137
v  -0.0312 -0.2752 0.0039
v  0.0324 -0.2752 -0.0109
v  0.0381 -0.2282 0.0033
v  0.0342 -0.2314 -0.0286
v  0.0250 -0.2288 0.0286
v  -0.0155 -0.2835 -0.0248
v  0.0140 -0.2846 -0.0303
v  0.0191 -0.2330 -0.0436
v  -0.0140 -0.2328 -0.0403
v  -0.0326 -0.2312 -0.0117
v  -0.0281 -0.2304 0.0201
v  -0.0012 -0.2289 0.0381
v  0.0482 -0.1655 -0.0213
v  0.0478 -0.1657 0.0028
v  0.0402 -0.1629 -0.0490
v  0.0241 -0.1621 -0.0671
v  0.0002 -0.1648 -0.0691
v  -0.0235 -0.1710 -0.0509
v  -0.0367 -0.1704 -0.0208
v  -0.0368 -0.1694 0.0082
v  -0.0249 -0.1702 0.0319
v  -0.0076 -0.1722 0.0433
v  0.0182 -0.1716 0.0437
v  0.0364 -0.1702 0.0285
v  0.0622 -0.0854 0.0314
v  0.0413 -0.0892 0.0559
v  0.0179 -0.0676 0.0788
v  0.0012 -0.1003 -0.0719
v  0.0287 -0.1143 -0.0651
v  -0.0299 -0.1058 -0.0548
v  -0.0196 -0.0372 -0.0851
v  -0.0426 -0.0480 -0.0633
v  0.0201 -0.0682 -0.0772
v  -0.0041 -0.0241 -0.0922
v  0.0351 -0.0939 -0.0660
v  -0.0555 0.0435 0.0438
v  -0.0676 0.0064 0.0101
v  -0.0590 -0.0094 0.0500
v  -0.0457 0.0056 0.0716
v  -0.0362 -0.0537 0.0787
v  -0.0536 -0.0521 0.0557
v  -0.0651 -0.0492 0.0154
v  -0.0651 -0.0065 -0.0288
v  -0.0607 -0.0480 -0.0277
v  -0.0590 0.0475 -0.0324
v  -0.0557 0.0087 -0.0580
v  -0.0254 0.0245 -0.0905
v  -0.0473 0.0536 0.0542
v  -0.0454 0.0547 0.0603
v  -0.0466 0.0816 0.0046
v  -0.0237 0.1013 -0.0510
v  -0.0306 0.0682 -0.0783
v  0.0587 -0.1321 -0.0225
v  0.0657 -0.1133 -0.0216
v  0.0609 -0.1280 0.0039
v  0.0676 -0.1051 0.0032
v  0.0516 -0.1093 -0.0508
v  0.0469 -0.1255 -0.0489
v  -0.0492 -0.1083 -0.0239
v  -0.0529 -0.1113 0.0137
v  -0.0428 -0.1166 0.0481
v  -0.0193 -0.1193 0.0706
v  0.0034 -0.0495 0.0907
# 86 vertices

vn -0.6697 0.0274 0.7421
vn -0.1293 -0.1665 0.9775
vn -0.3739 -0.0509 0.9261
vn 0.6976 -0.2430 0.6741
vn 0.5199 -0.0687 0.8515
vn 0.2075 -0.3093 0.9280
vn 0.0821 -0.9966 0.0020
vn 0.0450 -0.9990 0.0020
vn 0.0977 -0.9908 0.0938
vn 0.1252 -0.9920 0.0137
vn 0.0841 -0.9918 -0.0959
vn 0.0470 -0.9978 0.0470
vn 0.0410 -0.9908 0.1290
vn 0.0410 -0.9949 0.0919
vn 0.0586 -0.9929 0.1036
vn 0.4472 0.5256 0.7237
vn 0.2488 0.1979 0.9481
vn 0.8705 0.1235 0.4764
vn 0.7501 0.5033 0.4289
vn -0.4663 0.4898 0.7367
vn -0.1352 0.1019 0.9856
vn -0.8534 0.4385 0.2819
vn -0.9632 0.1116 0.2447
vn -0.9247 0.2053 0.3206
vn -0.0255 0.8384 0.5445
vn -0.6044 0.6826 0.4108
vn 0.4394 0.7474 0.4983
vn 0.9694 0.2448 0.0176
vn -0.9629 0.0918 -0.2539
vn -0.9756 -0.0137 -0.2190
vn 0.9962 0.0802 0.0333
vn 0.9848 0.0431 -0.1684
vn 0.9844 0.0450 -0.1703
vn 0.9839 -0.1117 0.1392
vn 0.9614 0.0235 0.2741
vn 0.9882 -0.0822 -0.1292
vn 0.9742 -0.1526 -0.1663
vn 0.7028 -0.0313 0.7107
vn 0.5191 0.1332 0.8443
vn -0.5945 -0.2093 -0.7764
vn -0.5348 -0.2342 -0.8119
vn 0.2152 -0.2817 -0.9351
vn 0.7327 -0.1567 -0.6622
vn 0.5302 -0.2445 -0.8119
vn 0.7074 -0.1446 -0.6918
vn 0.4321 -0.3109 -0.8466
vn 0.6872 -0.2819 -0.6696
vn 0.7233 -0.2659 -0.6373
vn 0.1799 -0.2816 -0.9425
vn -0.6890 -0.2186 -0.6910
vn -0.5492 -0.2502 -0.7974
vn -0.9976 -0.0665 -0.0176
vn -0.9704 -0.1096 -0.2152
vn -0.6831 0.1077 0.7223
vn -0.8848 -0.0117 0.4659
vn -0.1549 0.0078 0.9879
vn -0.0588 0.1175 0.9913
vn 0.9648 -0.2270 -0.1331
vn 0.9566 -0.2529 0.1451
vn 0.9165 -0.2095 -0.3408
vn 0.4912 -0.1546 -0.8572
vn 0.7146 -0.2212 -0.6637
vn -0.2013 -0.1642 -0.9657
vn -0.7665 -0.1682 -0.6198
vn -0.9411 -0.1757 -0.2890
vn -0.9578 -0.1994 0.2072
vn -0.6947 -0.2779 0.6634
vn -0.2917 -0.3113 0.9044
vn 0.2897 -0.3348 0.8966
vn 0.8188 -0.2409 0.5211
vn 0.8486 -0.2136 0.4841
vn 0.7272 -0.0216 0.6861
vn 0.4075 -0.1802 0.8953
vn -0.1250 -0.1874 -0.9743
vn 0.3875 -0.1057 -0.9158
vn -0.7325 -0.1660 -0.6602
vn -0.4066 -0.2170 -0.8875
vn -0.7479 -0.2070 -0.6307
vn 0.0527 -0.2852 -0.9570
vn -0.2248 -0.2483 -0.9422
vn 0.3244 -0.2013 -0.9243
vn -0.9348 0.2308 0.2699
vn -0.9945 0.0762 0.0723
vn -0.9194 0.0000 0.3932
vn -0.7922 0.0841 0.6044
vn -0.6950 -0.1214 0.7087
vn -0.9060 -0.1409 0.3992
vn -0.9911 -0.1232 0.0508
vn -0.9726 -0.0430 -0.2285
vn -0.9266 -0.1759 -0.3323
vn -0.9355 0.2623 -0.2368
vn -0.8320 0.0020 -0.5547
vn -0.6970 0.0273 -0.7165
vn -0.8763 0.3267 0.3540
vn -0.8752 0.1997 0.4406
vn -0.7999 0.5945 0.0821
vn -0.7840 0.6002 -0.1584
vn -0.8696 0.2462 -0.4280
vn 0.9326 -0.2939 -0.2096
vn 0.9202 -0.3132 -0.2349
vn 0.9257 -0.3053 0.2231
vn 0.9444 -0.2724 0.1842
vn 0.8429 -0.2953 -0.4498
vn 0.8596 -0.2487 -0.4464
vn 0.6517 -0.1390 -0.7456
vn 0.5514 -0.2307 -0.8017
vn -0.9375 -0.1992 -0.2852
vn -0.9705 -0.2246 0.0879
vn -0.8274 -0.2993 0.4753
vn -0.3935 -0.3954 0.8300
vn 0.0706 -0.2626 0.9623
# 111 vertex normals

vt 0.6920 0.3766 0.0000
vt 0.6787 0.4360 0.0000
vt 0.7002 0.4063 0.0000
vt 0.6625 0.5133 0.0000
vt 0.6778 0.4811 0.0000
vt 0.6519 0.4906 0.0000
vt 0.4777 0.6542 0.0000
vt 0.5063 0.6415 0.0000
vt 0.5102 0.6137 0.0000
vt 0.4963 0.5939 0.0000
vt 0.4741 0.5874 0.0000
vt 0.4471 0.5868 0.0000
vt 0.4212 0.6010 0.0000
vt 0.4467 0.6509 0.0000
vt 0.4217 0.6372 0.0000
vt 0.2347 0.0957 0.0000
vt 0.2189 0.0764 0.0000
vt 0.2005 0.1011 0.0000
vt 0.2265 0.1182 0.0000
vt 0.2613 0.0808 0.0000
vt 0.2490 0.0541 0.0000
vt 0.2851 0.0980 0.0000
vt 0.3045 0.0692 0.0000
vt 0.2781 0.0566 0.0000
vt 0.2590 0.1172 0.0000
vt 0.2817 0.1126 0.0000
vt 0.2416 0.1317 0.0000
vt 0.2290 0.1529 0.0000
vt 0.3073 0.1255 0.0000
vt 0.3292 0.0899 0.0000
vt 0.1930 0.1282 0.0000
vt 0.1905 0.1518 0.0000
vt 0.2186 0.1744 0.0000
vt 0.5944 0.6096 0.0000
vt 0.5581 0.6260 0.0000
vt 0.5603 0.6496 0.0000
vt 0.6036 0.6381 0.0000
vt 0.5809 0.5848 0.0000
vt 0.5502 0.6037 0.0000
vt 0.3338 0.1415 0.0000
vt 0.3516 0.1129 0.0000
vt 0.3566 0.1573 0.0000
vt 0.3778 0.1734 0.0000
vt 0.3748 0.1296 0.0000
vt 0.3959 0.1423 0.0000
vt 0.4438 0.5138 0.0000
vt 0.4240 0.5126 0.0000
vt 0.4098 0.5555 0.0000
vt 0.4357 0.5630 0.0000
vt 0.4636 0.5667 0.0000
vt 0.4750 0.5195 0.0000
vt 0.4946 0.5692 0.0000
vt 0.5058 0.5293 0.0000
vt 0.5220 0.5754 0.0000
vt 0.5347 0.5429 0.0000
vt 0.5627 0.5615 0.0000
vt 0.5423 0.5843 0.0000
vt 0.6566 0.6029 0.0000
vt 0.6464 0.5822 0.0000
vt 0.6698 0.6270 0.0000
vt 0.4579 0.4464 0.0000
vt 0.4363 0.4455 0.0000
vt 0.4781 0.4522 0.0000
vt 0.5007 0.4662 0.0000
vt 0.5283 0.4785 0.0000
vt 0.5541 0.4911 0.0000
vt 0.5772 0.5065 0.0000
vt 0.5940 0.5218 0.0000
vt 0.6137 0.5408 0.0000
vt 0.6291 0.5602 0.0000
vt 0.7106 0.5263 0.0000
vt 0.6879 0.5059 0.0000
vt 0.6901 0.4687 0.0000
vt 0.4916 0.3943 0.0000
vt 0.4633 0.4027 0.0000
vt 0.5209 0.4095 0.0000
vt 0.5192 0.3373 0.0000
vt 0.5403 0.3583 0.0000
vt 0.4819 0.3613 0.0000
vt 0.5104 0.3206 0.0000
vt 0.4624 0.3837 0.0000
vt 0.6679 0.3298 0.0000
vt 0.6247 0.3456 0.0000
vt 0.6515 0.3748 0.0000
vt 0.6786 0.3727 0.0000
vt 0.6603 0.4249 0.0000
vt 0.6386 0.4117 0.0000
vt 0.6066 0.3925 0.0000
vt 0.5884 0.3404 0.0000
vt 0.5725 0.3743 0.0000
vt 0.6056 0.2948 0.0000
vt 0.5698 0.3150 0.0000
vt 0.5414 0.2810 0.0000
vt 0.6822 0.3258 0.0000
vt 0.6871 0.3283 0.0000
vt 0.6492 0.2826 0.0000
vt 0.6127 0.2342 0.0000
vt 0.5742 0.2513 0.0000
vt 0.6863 0.5903 0.0000
vt 0.7022 0.5820 0.0000
vt 0.6807 0.5668 0.0000
vt 0.7013 0.5577 0.0000
vt 0.7175 0.6085 0.0000
vt 0.7020 0.6123 0.0000
vt 0.4395 0.4097 0.0000
vt 0.4389 0.3938 0.0000
vt 0.5506 0.4254 0.0000
vt 0.5803 0.4433 0.0000
vt 0.6066 0.4622 0.0000
vt 0.6292 0.4790 0.0000
vt 0.6951 0.4443 0.0000
# 111 texture coords

o F_Right_Leg_Dog
g F_Right_Leg_Dog
usemtl Material__27
s 1
f 1/1/1 2/2/2 3/3/3 
f 4/4/4 5/5/5 6/6/6 
f 7/7/7 8/8/8 9/9/9 
f 10/10/10 11/11/11 7/7/7 
f 11/11/11 12/12/12 7/7/7 
f 9/9/9 10/10/10 7/7/7 
f 12/12/12 13/13/13 14/14/14 
f 13/13/13 15/15/15 14/14/14 
f 12/12/12 14/14/14 7/7/7 
f 16/16/16 13/17/17 12/18/18 
f 16/16/16 12/18/18 17/19/19 
f 18/20/20 15/21/21 13/17/17 
f 18/20/20 13/17/17 16/16/16 
f 18/20/20 19/22/22 14/23/23 
f 18/20/20 14/23/23 15/24/24 
f 18/20/20 16/16/16 20/25/25 
f 21/26/26 19/22/22 20/25/25 
f 19/22/22 18/20/20 20/25/25 
f 16/16/16 17/19/19 20/25/25 
f 17/19/19 22/27/27 20/25/25 
f 23/28/28 22/27/27 17/19/19 
f 19/22/22 21/26/26 24/29/29 
f 24/29/29 7/30/30 19/22/22 
f 7/30/30 14/23/23 19/22/22 
f 12/18/18 11/31/31 17/19/19 
f 11/31/31 23/28/28 17/19/19 
f 11/31/31 10/32/32 23/28/28 
f 10/32/32 25/33/33 23/28/28 
f 26/34/34 23/35/35 25/36/36 
f 26/34/34 25/36/36 27/37/37 
f 28/38/38 22/39/39 23/35/35 
f 28/38/38 23/35/35 26/34/34 
f 29/40/40 8/41/41 24/29/29 
f 8/41/41 7/30/30 24/29/29 
f 30/42/42 25/43/43 9/44/44 
f 25/43/43 10/45/45 9/44/44 
f 31/46/46 27/47/47 25/48/48 
f 31/46/46 25/48/48 30/49/49 
f 29/40/40 30/42/42 8/41/41 
f 30/42/42 9/44/44 8/41/41 
f 30/49/49 29/50/50 32/51/51 
f 30/49/49 32/51/51 31/46/46 
f 29/50/50 24/52/52 33/53/53 
f 29/50/50 33/53/53 32/51/51 
f 24/52/52 21/54/54 34/55/55 
f 24/52/52 34/55/55 33/53/53 
f 35/56/56 20/57/57 22/39/39 
f 35/56/56 22/39/39 28/38/38 
f 35/56/56 34/55/55 21/54/54 
f 35/56/56 21/54/54 20/57/57 
f 27/37/37 36/58/58 26/34/34 
f 36/58/58 37/59/59 26/34/34 
f 38/60/60 36/58/58 27/37/37 
f 31/46/46 39/61/61 38/62/62 
f 31/46/46 38/62/62 27/47/47 
f 32/51/51 40/63/63 31/46/46 
f 40/63/63 39/61/61 31/46/46 
f 41/64/64 40/63/63 32/51/51 
f 33/53/53 42/65/65 32/51/51 
f 42/65/65 41/64/64 32/51/51 
f 34/55/55 43/66/66 33/53/53 
f 43/66/66 42/65/65 33/53/53 
f 44/67/67 43/66/66 34/55/55 
f 35/56/56 45/68/68 44/67/67 
f 35/56/56 44/67/67 34/55/55 
f 28/38/38 46/69/69 35/56/56 
f 46/69/69 45/68/68 35/56/56 
f 47/70/70 46/69/69 28/38/38 
f 37/59/59 47/70/70 26/34/34 
f 47/70/70 28/38/38 26/34/34 
f 48/71/71 49/72/72 4/4/4 
f 50/73/73 5/5/5 49/72/72 
f 5/5/5 4/4/4 49/72/72 
f 47/70/70 4/4/4 46/69/69 
f 4/4/4 6/6/6 46/69/69 
f 40/63/63 51/74/74 52/75/75 
f 40/63/63 52/75/75 39/61/61 
f 53/76/76 51/74/74 40/63/63 
f 53/76/76 40/63/63 41/64/64 
f 54/77/77 51/74/74 55/78/78 
f 51/74/74 53/76/76 55/78/78 
f 56/79/79 51/74/74 54/77/77 
f 56/79/79 54/77/77 57/80/80 
f 52/75/75 51/74/74 58/81/81 
f 51/74/74 56/79/79 58/81/81 
f 59/82/82 60/83/83 61/84/84 
f 62/85/85 61/84/84 63/86/86 
f 61/84/84 64/87/87 63/86/86 
f 61/84/84 60/83/83 65/88/88 
f 61/84/84 65/88/88 64/87/87 
f 60/83/83 66/89/89 65/88/88 
f 66/89/89 67/90/90 65/88/88 
f 68/91/91 69/92/92 66/89/89 
f 67/90/90 66/89/89 55/78/78 
f 66/89/89 69/92/92 55/78/78 
f 69/92/92 70/93/93 54/77/77 
f 69/92/92 54/77/77 55/78/78 
f 70/93/93 69/92/92 68/91/91 
f 1/1/1 71/94/94 62/85/85 
f 71/94/94 59/82/82 62/85/85 
f 72/95/95 71/94/94 1/1/1 
f 59/82/82 71/94/94 73/96/96 
f 68/91/91 60/83/83 59/82/82 
f 74/97/97 75/98/98 68/91/91 
f 2/2/2 1/1/1 63/86/86 
f 1/1/1 62/85/85 63/86/86 
f 76/99/99 77/100/100 78/101/101 
f 77/100/100 79/102/102 78/101/101 
f 80/103/103 77/100/100 81/104/104 
f 77/100/100 76/99/99 81/104/104 
f 38/60/60 81/104/104 76/99/99 
f 38/60/60 76/99/99 36/58/58 
f 52/75/75 81/105/105 39/61/61 
f 81/105/105 38/62/62 39/61/61 
f 80/106/106 81/105/105 52/75/75 
f 80/106/106 52/75/75 58/81/81 
f 82/107/107 42/65/65 83/108/108 
f 42/65/65 43/66/66 83/108/108 
f 41/64/64 42/65/65 53/76/76 
f 42/65/65 82/107/107 53/76/76 
f 67/90/90 82/107/107 65/88/88 
f 82/107/107 83/108/108 65/88/88 
f 53/76/76 82/107/107 67/90/90 
f 53/76/76 67/90/90 55/78/78 
f 84/109/109 83/108/108 43/66/66 
f 84/109/109 43/66/66 44/67/67 
f 65/88/88 83/108/108 64/87/87 
f 83/108/108 84/109/109 64/87/87 
f 85/110/110 84/109/109 44/67/67 
f 85/110/110 44/67/67 45/68/68 
f 64/87/87 84/109/109 63/86/86 
f 84/109/109 85/110/110 63/86/86 
f 6/6/6 85/110/110 46/69/69 
f 85/110/110 45/68/68 46/69/69 
f 63/86/86 85/110/110 2/2/2 
f 85/110/110 6/6/6 2/2/2 
f 78/101/101 37/59/59 76/99/99 
f 37/59/59 36/58/58 76/99/99 
f 47/70/70 37/59/59 78/101/101 
f 47/70/70 78/101/101 4/4/4 
f 4/4/4 78/101/101 48/71/71 
f 78/101/101 79/102/102 48/71/71 
f 68/91/91 75/98/98 70/93/93 
f 59/82/82 73/96/96 68/91/91 
f 68/91/91 73/96/96 74/97/97 
f 66/89/89 60/83/83 68/91/91 
f 61/84/84 62/85/85 59/82/82 
f 2/2/2 6/6/6 5/5/5 
f 2/2/2 5/5/5 50/73/73 
f 86/111/111 3/3/3 2/2/2 
f 86/111/111 2/2/2 50/73/73 
f 57/80/80 54/77/77 70/93/93 
# 152 faces

